<?xml version="1.0" encoding="UTF-8"?>
<svg version="1.1" xmlns="http://www.w3.org/2000/svg" width="512" height="512">
<path d="M0 0 C1.55333665 -0.00462251 3.10666891 -0.01098439 4.65999222 -0.01890898 C8.88006661 -0.03544037 13.09977417 -0.02743074 17.31984901 -0.0149641 C21.88981094 -0.00584879 26.45971331 -0.01991522 31.02966309 -0.03088379 C39.9631027 -0.04860493 48.89640735 -0.04485771 57.8298521 -0.03323323 C65.09479053 -0.02417385 72.35969132 -0.0229857 79.62463379 -0.02732849 C81.17975642 -0.02824789 81.17975642 -0.02824789 82.76629567 -0.02918586 C84.87289144 -0.03046485 86.97948719 -0.03176171 89.08608294 -0.03307623 C108.80714687 -0.04446326 128.52813624 -0.03139782 148.24918795 -0.00987476 C165.14500376 0.0079945 182.04070961 0.00488986 198.93652344 -0.0135498 C218.59040001 -0.03498973 238.24421136 -0.0433648 257.89809799 -0.03110075 C259.99664051 -0.02982665 262.09518304 -0.02856916 264.19372559 -0.02732849 C265.74222698 -0.02640284 265.74222698 -0.02640284 267.32201123 -0.02545848 C274.5723155 -0.02201494 281.82257815 -0.02781239 289.07287598 -0.0372467 C297.91704008 -0.04850281 306.76106231 -0.04535102 315.6052103 -0.02412373 C320.11157596 -0.01366174 324.61770567 -0.00940797 329.12406921 -0.02272034 C333.25951051 -0.03475156 337.39449999 -0.02790769 341.52990103 -0.00681013 C343.01556124 -0.00238901 344.50126065 -0.00450745 345.98689508 -0.01431328 C359.19939594 -0.09474398 372.42589282 1.88953118 384.22167969 8.19543457 C385.20575806 8.70481567 385.20575806 8.70481567 386.2097168 9.2244873 C392.4188708 12.56028449 397.73246636 16.73278754 402.90917969 21.50793457 C403.53953125 22.05836426 404.16988281 22.60879395 404.81933594 23.17590332 C418.50607744 35.80262384 427.16913427 54.66608235 428.28102112 73.18185425 C428.47333774 78.3982964 428.450982 83.61305965 428.42675781 88.83215332 C428.43219121 90.82151295 428.43932063 92.81086855 428.44799805 94.80021667 C428.4660801 100.15304371 428.45922948 105.50555901 428.4464817 110.85839081 C428.43628639 116.48002401 428.44576434 122.10163224 428.45202637 127.7232666 C428.45927906 137.15104931 428.4497727 146.57870617 428.43066406 156.00646973 C428.40884937 166.89488414 428.41598965 177.78299944 428.43796968 188.67140675 C428.45613129 198.04505119 428.45867978 207.41860573 428.44821501 216.79226208 C428.44199079 222.38034662 428.44111604 227.96829055 428.45436096 233.55636597 C428.46593166 238.80314452 428.45787129 244.04953723 428.43478394 249.29627419 C428.42950557 251.21831434 428.43099564 253.14038709 428.43983459 255.06241417 C428.45080701 257.69101103 428.43700718 260.31838024 428.41711426 262.94689941 C428.42603714 263.70254527 428.43496003 264.45819113 428.44415331 265.23673534 C428.35104055 271.60306711 426.3897965 276.95464344 421.90917969 281.56652832 C421.24917969 282.02156738 420.58917969 282.47660645 419.90917969 282.94543457 C419.24917969 283.41852051 418.58917969 283.89160645 417.90917969 284.37902832 C413.54259458 286.84376093 408.83585392 287.01631559 403.90917969 286.50793457 C398.65735368 284.78750881 394.81850709 282.41726197 390.90917969 278.50793457 C370.55287083 231.00988057 387.90917969 175.18427775 387.90917969 123.50793457 C245.34917969 123.50793457 102.78917969 123.50793457 -44.09082031 123.50793457 C-43.96707031 163.35543457 -43.84332031 203.20293457 -43.71582031 244.25793457 C-43.68182129 256.83499512 -43.64782227 269.41205566 -43.61279297 282.37023926 C-43.57287951 293.65457636 -43.57287951 293.65457636 -43.53036499 304.93890381 C-43.51151404 309.96087396 -43.49815086 314.98282639 -43.48812866 320.00482178 C-43.4751509 326.41725949 -43.45273684 332.82960001 -43.42358661 339.24198389 C-43.41449622 341.59122109 -43.40867778 343.94047385 -43.4065659 346.28972769 C-43.92453191 371.16357155 -43.92453191 371.16357155 -33.04785156 392.86340332 C-25.27626575 400.19482852 -16.58500551 404.62491634 -5.88216305 404.64215565 C-3.95755793 404.64884241 -3.95755793 404.64884241 -1.9940719 404.65566427 C-0.56708776 404.65557497 0.85989638 404.65538512 2.28688049 404.65510559 C3.80042059 404.65840506 5.31395981 404.66213081 6.8274979 404.66624707 C10.99300425 404.67626583 15.15849619 404.67998367 19.32401288 404.68263638 C23.81431702 404.68653982 28.30460975 404.69611817 32.79490662 404.70484924 C43.64247625 404.72461299 54.49004681 404.73467996 65.33762994 404.74357703 C70.44620172 404.74796026 75.55477247 404.753327 80.66334343 404.7585659 C97.64605907 404.77557844 114.62877407 404.7900724 131.61149693 404.79731464 C136.01874861 404.79922453 140.42600029 404.80114487 144.83325195 404.80310059 C145.92865077 404.80358433 147.02404958 404.80406807 148.1526423 404.80456647 C165.8956042 404.81286597 183.63849866 404.83820143 201.38143111 404.87068126 C219.59854213 404.90375716 237.81561888 404.92176391 256.03276008 404.92495888 C266.26065276 404.92712354 276.4884471 404.93586562 286.7163105 404.96142006 C295.42730657 404.98313431 304.13818043 404.9911739 312.84920049 404.98145328 C317.2920962 404.97691063 321.73473979 404.9787927 326.17760086 404.99821472 C330.24970776 405.01586188 334.32137891 405.01483626 338.39349055 404.99931743 C339.86193376 404.9969437 341.33040727 405.00125274 342.79880423 405.01314608 C355.96880251 405.11315822 366.20247992 402.77859119 375.90917969 393.50793457 C382.86586207 386.03881799 385.75298277 377.91991992 386.90917969 367.88293457 C387.78780971 360.36913299 389.09877146 354.77502214 394.84667969 349.63293457 C400.77360107 345.52037687 405.76226687 344.63635984 412.90917969 345.50793457 C418.83836323 347.31962954 422.42033671 350.47989616 425.90917969 355.50793457 C430.98307064 365.44132672 428.38941726 380.2341449 425.29589844 390.55871582 C421.35901791 402.33999962 415.33502732 412.37351474 406.90917969 421.50793457 C406.35875 422.13828613 405.80832031 422.7686377 405.24121094 423.41809082 C392.63316931 437.08458532 374.32829333 445.1476638 355.98885345 446.87777042 C351.92651534 447.01772293 347.88211346 447.04269169 343.81835938 447.01586914 C342.26502273 447.02049165 340.71169047 447.02685353 339.15836716 447.03477812 C334.93829276 447.05130951 330.7185852 447.04329988 326.49851036 447.03083324 C321.92854843 447.02171793 317.35864606 447.03578436 312.78869629 447.04675293 C303.85525667 447.06447407 294.92195202 447.06072685 285.98850727 447.04910237 C278.72356884 447.04004299 271.45866805 447.03885484 264.19372559 447.04319763 C262.63860295 447.04411703 262.63860295 447.04411703 261.0520637 447.045055 C258.94546794 447.04633399 256.83887218 447.04763085 254.73227644 447.04894537 C235.01121251 447.0603324 215.29022313 447.04726696 195.56917143 447.0257439 C178.67335562 447.00787464 161.77764976 447.01097928 144.88183594 447.02941895 C125.22795936 447.05085887 105.57414802 447.05923394 85.92026138 447.04696989 C83.82171886 447.04569579 81.72317633 447.0444383 79.62463379 447.04319763 C78.07613239 447.04227198 78.07613239 447.04227198 76.49634814 447.04132763 C69.24604387 447.03788408 61.99578122 447.04368153 54.7454834 447.05311584 C45.90131929 447.06437196 37.05729707 447.06122017 28.21314907 447.03999287 C23.70678341 447.02953088 19.2006537 447.02527711 14.69429016 447.03858948 C10.55884886 447.0506207 6.42385939 447.04377684 2.28845835 447.02267927 C0.80279813 447.01825815 -0.68290128 447.02037659 -2.16853571 447.03018242 C-15.38103656 447.11061312 -28.60753345 445.12633796 -40.40332031 438.82043457 C-41.05937256 438.48084717 -41.7154248 438.14125977 -42.39135742 437.79138184 C-48.60051143 434.45558465 -53.91410698 430.2830816 -59.09082031 425.50793457 C-60.03634766 424.68229004 -60.03634766 424.68229004 -61.00097656 423.83996582 C-75.26983758 410.67621022 -83.64004879 391.38022276 -84.46266174 372.14743042 C-84.64411371 364.99098544 -84.63951201 357.83514459 -84.61371899 350.67710257 C-84.60457839 346.91695942 -84.61868234 343.15688749 -84.62963867 339.39675903 C-84.64733343 332.05149884 -84.64362456 324.70640305 -84.63198811 317.36113667 C-84.62291819 311.38624181 -84.62174509 305.41139271 -84.62608337 299.43649292 C-84.62669631 298.58291834 -84.62730924 297.72934376 -84.62794074 296.84990329 C-84.62921977 295.11534952 -84.63051663 293.38079576 -84.63183111 291.64624202 C-84.64321041 275.41888997 -84.63016494 259.19162862 -84.60862964 242.96429145 C-84.59076107 229.07026513 -84.59386593 215.17637254 -84.61230469 201.28234863 C-84.63375838 185.10915715 -84.64211202 168.93604496 -84.62985563 152.76284122 C-84.62858157 151.03501957 -84.62732408 149.3071979 -84.62608337 147.57937622 C-84.62546627 146.72947324 -84.62484917 145.87957025 -84.62421337 145.00391263 C-84.62077394 139.04302469 -84.6265583 133.08218746 -84.63600159 127.12130737 C-84.64727312 119.84717766 -84.64407405 112.57322038 -84.62287861 105.29911017 C-84.61243696 101.594733 -84.60812702 97.89064227 -84.62147522 94.18626785 C-84.73520984 59.78101954 -84.73520984 59.78101954 -76.40332031 44.19543457 C-76.06373291 43.53938232 -75.72414551 42.88333008 -75.37426758 42.20739746 C-72.0384704 35.99824345 -67.86596735 30.6846479 -63.09082031 25.50793457 C-62.54039063 24.87758301 -61.98996094 24.24723145 -61.42285156 23.59777832 C-45.42239956 6.2540785 -22.89676697 -0.15112864 0 0 Z M-35.34082031 55.69543457 C-41.89537687 63.85667908 -43.15445072 72.2078691 -44.09082031 82.50793457 C98.46917969 82.50793457 241.02917969 82.50793457 387.90917969 82.50793457 C386.62318882 68.36203499 383.63760705 59.06320585 372.90917969 49.50793457 C365.61491514 44.14024677 358.48830677 41.26229554 349.33137894 41.25066566 C348.04233571 41.24421677 346.75329249 41.23776788 345.42518735 41.23112357 C344.00702961 41.23406542 342.58887226 41.23720082 341.17071533 41.24050903 C339.65458473 41.23677045 338.13845606 41.2321681 336.62233043 41.22677839 C332.46358128 41.2145586 328.30491264 41.21480765 324.14614964 41.21716714 C319.65793687 41.21757556 315.16974983 41.20653369 310.68154907 41.197052 C301.89096831 41.18044654 293.10041438 41.17494266 284.30981925 41.17382725 C277.16333703 41.17287654 270.01686364 41.16876512 262.87038422 41.16242599 C242.60324861 41.1448147 222.33613417 41.13558693 202.06899086 41.13708694 C200.97662426 41.13716686 199.88425767 41.13724677 198.75878906 41.1373291 C197.66508675 41.13741086 196.57138444 41.13749262 195.44453964 41.13757686 C177.72116381 41.13838969 159.99787298 41.11925244 142.27452174 41.09105237 C124.07087119 41.06231692 105.86726209 41.04851244 87.66358829 41.05023992 C77.4458067 41.0509036 67.22811423 41.04542092 57.01035309 41.02388382 C48.31040227 41.00566334 39.61058094 41.00133182 30.91061929 41.01490267 C26.47378342 41.02142797 22.03719593 41.02156539 17.60038376 41.00419617 C13.53393967 40.98844092 9.46794039 40.99135387 5.40150699 41.00876443 C3.93517559 41.01182895 2.46881079 41.00822264 1.0025188 40.99704428 C-14.19324331 40.88892663 -24.76588386 44.66305812 -35.34082031 55.69543457 Z " fill="#FFFFFF" transform="translate(84.0908203125,32.4920654296875)"/>
<path d="M0 0 C4.90735733 2.6211989 9.29487944 5.565661 13.5625 9.125 C14.54476562 9.90810547 14.54476562 9.90810547 15.546875 10.70703125 C21.02262739 15.23832247 25.35167757 20.41679459 29.5625 26.125 C30.036875 26.76050781 30.51125 27.39601562 31 28.05078125 C38.20992034 38.57275874 40.75783848 51.40934043 41.91015625 63.890625 C43.13770144 75.85621116 46.56595553 81.97662157 55.734375 89.5703125 C60.10969887 93.29120758 63.16229342 97.40378097 63.78515625 103.1953125 C64.03925378 109.71346646 62.93100727 114.48724045 58.53515625 119.3828125 C56.25496949 121.6819692 53.92988934 123.91599234 51.5625 126.125 C46.01359884 131.43264459 43.36904534 135.18290257 42.5625 142.9375 C42.40551094 144.27381339 42.24524069 145.60974457 42.08203125 146.9453125 C41.99904785 147.63270508 41.91606445 148.32009766 41.83056641 149.02832031 C39.81195348 164.81688843 35.67786056 177.53915715 25.5625 190.125 C24.9953125 190.84558594 24.428125 191.56617188 23.84375 192.30859375 C14.35176131 203.7930046 1.71067641 211.75230952 -12.4375 216.125 C-13.12972656 216.351875 -13.82195312 216.57875 -14.53515625 216.8125 C-22.88579114 219.12943916 -35.21603126 220.1441 -43.1875 216.5 C-48.29773672 213.25740585 -51.49919002 208.84682335 -53.4375 203.125 C-54.37545405 196.51982884 -53.89791565 191.29405292 -49.921875 185.84375 C-44.92722412 180.06047003 -39.964746 177.70572004 -32.453125 176.7421875 C-21.63677715 175.34571066 -13.78273052 172.75941509 -6.8359375 164.03515625 C-1.47819513 156.71689921 -0.26544405 149.83012061 0.4375 141 C1.61407163 128.45878847 4.81868956 117.68943164 11.875 107.16796875 C12.83604207 105.06994921 12.83604207 105.06994921 11.5859375 102.8984375 C11.04195313 102.10695313 10.49796875 101.31546875 9.9375 100.5 C3.18887349 89.961049 0.86631215 79.54855541 0.25 67.125 C-0.39922058 58.5843913 -3.5835904 49.91125706 -9.59765625 43.65234375 C-16.57065472 37.86371869 -23.47977672 35.63203311 -32.359375 34.52734375 C-40.3604694 33.48151542 -44.87788837 31.47828236 -50.02734375 25.16015625 C-53.89675416 19.5757717 -54.18051166 14.83068023 -53.4375 8.125 C-51.67687582 2.1828934 -48.45684812 -1.39218702 -43.4375 -4.875 C-30.52561311 -11.38827865 -12.04779303 -5.7370443 0 0 Z " fill="#FFFFFF" transform="translate(385.4375,192.875)"/>
<path d="M0 0 C4.79435921 4.03670141 7.9828235 8.57250348 8.87890625 14.8828125 C9.07040856 22.66681805 7.35315742 27.12839056 2.0859375 32.80078125 C-2.27097522 36.8297543 -6.75425107 37.94678113 -12.44140625 38.6171875 C-21.90044746 39.77018306 -30.0975316 42.34926595 -36.8671875 49.39453125 C-43.24784724 57.91437171 -44.90046539 66.86408995 -45.76147461 77.18603516 C-46.77546356 88.72087886 -50.36262022 98.62098004 -56.8046875 108.2265625 C-57.76572957 110.32458204 -57.76572957 110.32458204 -56.515625 112.49609375 C-55.97164062 113.28757812 -55.42765625 114.0790625 -54.8671875 114.89453125 C-48.05558655 125.53182588 -45.87371767 136.01357063 -45.0546875 148.51953125 C-44.31271269 158.02917508 -40.60529731 166.39990285 -33.60546875 173.06640625 C-25.70523582 179.33692512 -17.85580423 180.66990789 -8.078125 181.546875 C-1.26307658 182.920278 2.5126598 186.94266099 6.5078125 192.26953125 C9.37039206 197.0338245 9.10624411 201.86868598 8.5078125 207.26953125 C6.74718832 213.21163785 3.52716062 216.78671827 -1.4921875 220.26953125 C-11.30199169 225.21799376 -24.93877243 222.56376679 -34.984375 219.53515625 C-43.70516899 216.38867824 -51.37817894 212.20285351 -58.4921875 206.26953125 C-59.14703125 205.74746094 -59.801875 205.22539062 -60.4765625 204.6875 C-65.95231489 200.15620878 -70.28136507 194.97773666 -74.4921875 189.26953125 C-74.9665625 188.63402344 -75.4409375 187.99851562 -75.9296875 187.34375 C-83.13960784 176.82177251 -85.68752598 163.98519082 -86.83984375 151.50390625 C-88.06738894 139.53832009 -91.49564303 133.41790968 -100.6640625 125.82421875 C-105.03938637 122.10332367 -108.09198092 117.99075028 -108.71484375 112.19921875 C-108.96894128 105.68106479 -107.86069477 100.9072908 -103.46484375 96.01171875 C-101.18465699 93.71256205 -98.85957684 91.47853891 -96.4921875 89.26953125 C-90.94328634 83.96188666 -88.29873284 80.21162868 -87.4921875 72.45703125 C-87.33519844 71.12071786 -87.17492819 69.78478668 -87.01171875 68.44921875 C-86.92873535 67.76182617 -86.84575195 67.07443359 -86.76025391 66.36621094 C-84.74164098 50.57764282 -80.60754806 37.8553741 -70.4921875 25.26953125 C-69.925 24.54894531 -69.3578125 23.82835937 -68.7734375 23.0859375 C-59.28144881 11.60152665 -46.64036391 3.64222173 -32.4921875 -0.73046875 C-31.45384766 -1.07078125 -31.45384766 -1.07078125 -30.39453125 -1.41796875 C-21.51803264 -3.8808123 -7.98275947 -5.06529356 0 0 Z " fill="#FFFFFF" transform="translate(171.4921875,188.73046875)"/>
<path d="M0 0 C0.84590195 -0.0065712 1.69180389 -0.0131424 2.56333923 -0.01991272 C5.36555064 -0.03963812 8.16770841 -0.05130779 10.9699707 -0.0612793 C11.92809977 -0.06535482 12.88622883 -0.06943035 13.87339211 -0.07362938 C18.94651702 -0.09448875 24.01961491 -0.10879 29.09277344 -0.11816406 C34.32381198 -0.12921691 39.55442379 -0.16360429 44.7853117 -0.20333576 C48.8148933 -0.22952816 52.84437374 -0.23785833 56.87403297 -0.24144554 C58.80167326 -0.24630617 60.72930919 -0.2579052 62.65686607 -0.27648354 C65.36142773 -0.30092663 68.06489211 -0.29990041 70.76953125 -0.29296875 C71.5589209 -0.30577881 72.34831055 -0.31858887 73.16162109 -0.33178711 C79.31670829 -0.27458007 84.67860334 1.31282262 89.23925304 5.62438488 C94.4169078 11.60572543 95.21334947 16.12490306 95.09106445 23.9074707 C94.38347474 29.95086452 91.5137945 33.41775537 87.27075195 37.55200195 C81.82139377 41.00769251 76.58099362 41.47497012 70.25952148 41.4675293 C69.4326886 41.47424652 68.60585571 41.48096375 67.75396729 41.48788452 C65.03293779 41.50681189 62.3121556 41.51078594 59.59106445 41.51293945 C57.69066264 41.51937067 55.79026182 41.52609927 53.88986206 41.53311157 C49.91051946 41.54507091 45.93126359 41.54879374 41.9519043 41.54760742 C36.86552347 41.54740423 31.77970132 41.57471306 26.69345284 41.60915184 C22.76937327 41.6314432 18.84542774 41.63544429 14.92129135 41.63438797 C13.04669137 41.63674029 11.17208749 41.64554297 9.2975502 41.6610527 C6.66989795 41.6807597 4.04344513 41.67485675 1.41577148 41.6628418 C0.64979645 41.67408081 -0.11617859 41.68531982 -0.90536499 41.69689941 C-7.3020846 41.62297916 -12.45117686 39.62822844 -17.31518555 35.4309082 C-21.9617668 29.61596693 -23.79828414 25.28249046 -23.59643555 17.7355957 C-22.98560016 12.60614474 -21.14993522 8.89311446 -17.3503418 5.3840332 C-11.57166234 0.90369425 -7.26709062 0.02444058 0 0 Z " fill="#FFFFFF" transform="translate(186.291748046875,314.822998046875)"/>
<path d="M0 0 C0.65097656 -0.0049649 1.30195313 -0.00992981 1.97265625 -0.01504517 C4.12012808 -0.02961447 6.26752598 -0.03646081 8.41503906 -0.04199219 C9.91473389 -0.04774895 11.41442871 -0.05350661 12.91412354 -0.05926514 C16.05798687 -0.06976095 19.20182475 -0.07561256 22.34570312 -0.07910156 C26.3581395 -0.08457638 30.37023485 -0.10858846 34.38256454 -0.13707352 C37.481394 -0.15577535 40.58014264 -0.16090954 43.67902374 -0.16243744 C45.15728871 -0.16544866 46.63555278 -0.17342501 48.1137619 -0.18662262 C65.24008092 -0.32858625 65.24008092 -0.32858625 71.67285156 5.02832031 C76.70998287 11.22230475 78.95234997 15.4892098 78.73535156 23.60253906 C78.12451618 28.73199003 76.28885124 32.44502031 72.48925781 35.95410156 C67.16509309 40.08204511 63.49550735 41.28376596 56.69946289 41.33813477 C55.67932602 41.34799156 55.67932602 41.34799156 54.63858032 41.35804749 C52.38828412 41.37775288 50.13805469 41.38943878 47.88769531 41.39941406 C46.73183206 41.40552735 46.73183206 41.40552735 45.55261803 41.41176414 C41.47152348 41.43261623 37.39046244 41.44691991 33.30932617 41.45629883 C29.1073207 41.46734287 24.90584776 41.50172151 20.70403004 41.54147053 C17.46194011 41.56770204 14.21997562 41.57599657 10.97778893 41.57958031 C9.42972925 41.58443186 7.88167463 41.59600486 6.33371925 41.6146183 C-2.94405813 41.71921723 -10.19787482 41.70302465 -17.59277344 35.45019531 C-21.85353049 30.20429212 -23.85067055 26.12090236 -23.44433594 19.22363281 C-22.50993155 12.22084937 -20.11607725 8.14502449 -14.56933594 3.78613281 C-9.78791549 0.29345459 -5.86693474 0.03409313 0 0 Z " fill="#FFFFFF" transform="translate(270.5693359375,240.8388671875)"/>
<path d="M0 0 C1.05058594 -0.01611328 2.10117188 -0.03222656 3.18359375 -0.04882812 C10.43990563 -0.053369 16.53540504 0.37953826 22.3671875 5.14453125 C27.10394772 10.88983611 29.68403192 15.51498677 29.43359375 23.234375 C28.47523537 29.68813019 24.89345501 34.02454897 20.00390625 38.0859375 C13.66307835 42.22527214 7.12789584 41.67970523 -0.1875 41.6875 C-1.38568359 41.71199219 -2.58386719 41.73648438 -3.81835938 41.76171875 C-11.93534304 41.78855175 -18.01309352 41.1304379 -23.93359375 35.27734375 C-24.61615234 34.27380859 -24.61615234 34.27380859 -25.3125 33.25 C-25.78558594 32.57839844 -26.25867188 31.90679687 -26.74609375 31.21484375 C-29.53657831 26.51253932 -29.42611575 21.61108432 -28.875 16.3125 C-27.09634884 10.21579814 -23.24636515 5.64571869 -17.875 2.3125 C-12.11936872 -0.33907227 -6.21010104 -0.01891017 0 0 Z " fill="#FFFFFF" transform="translate(191.875,240.6875)"/>
<path d="M0 0 C5.19039543 2.97967145 8.81220493 7.87411478 10.6875 13.5 C11.42799988 20.33444968 10.81382112 25.87758585 6.6875 31.5 C1.93801233 36.56461955 -2.60488311 39.49099361 -9.625 39.875 C-15.43628719 39.71089388 -19.82971329 37.82313967 -24.07421875 33.8515625 C-29.1050628 28.27256353 -30.81841012 23.58208381 -30.6171875 16.05859375 C-30.00635212 10.92914279 -28.17068718 7.2161125 -24.37109375 3.70703125 C-17.17714796 -1.87059523 -8.67627457 -3.80215121 0 0 Z " fill="#FFFFFF" transform="translate(338.3125,316.5)"/>
</svg>
